<?xml version="1.0" encoding="UTF-8"?>
<svg enable-background="new 0 0 711 319" version="1.1" viewBox="0 0 711 319" xml:space="preserve" xmlns="http://www.w3.org/2000/svg">
<style type="text/css">
	.st0{fill:#78AB41;}
	.st1{fill:#FDBC16;}
</style>
		<path class="st0" d="m160.78 195.17v-26.32h-64.71v26.32c0 9.85 9.95 17.87 22.18 17.87h20.35c12.23 0 22.18-8.02 22.18-17.87z"/>
		<path class="st0" d="m151.9 117.73c-4.19 0-7.6 3.41-7.6 7.6v26.66h15.21v-26.66c-0.01-4.19-3.42-7.6-7.61-7.6z"/>
		<path class="st0" d="m106.16 117.73c-4.19 0-7.61 3.41-7.61 7.6v26.66h15.21v-26.66c0.01-4.19-3.4-7.6-7.6-7.6z"/>
		<path class="st0" d="m252.47 124.84l-115.88-116.91c-1.72-1.74-4.07-2.72-6.52-2.72s-4.8 0.98-6.52 2.72l-115.89 116.91c-2.62 2.64-3.38 6.6-1.94 10.03 1.44 3.41 4.77 5.62 8.46 5.62h0.06l24.85-0.17v170.52c0 2.47 1.41 3.88 3.88 3.88h11.1c1.62 0 2.77-0.62 3.38-1.73v-181.93c0-2.45-0.98-4.79-2.71-6.51-1.74-1.73-4.08-2.65-6.54-2.67l-11.85 0.08 93.71-94.53 93.71 94.53-12.18-0.08h-0.06c-2.42 0-4.75 0.96-6.47 2.67-1.74 1.72-2.71 4.07-2.71 6.51v164.13h-62.47v-69.72c-0.62-1.14-1.8-1.77-3.46-1.77h-11.36c-2.53 0-3.97 1.44-3.97 3.97v75.4c0 0.88 0.19 1.62 0.52 2.22 0.46 4.64 4.33 8.27 9.09 8.27h80.84c5.07 0 9.18-4.11 9.18-9.18v-164.07l25.18 0.17h0.06c3.69 0 7.03-2.21 8.46-5.62 1.44-3.43 0.67-7.39-1.95-10.02z"/>
		<circle class="st1" cx="395.93" cy="163.38" r="45.65"/>
		<path class="st0" d="m395.93 222.18c-25.21 0-45.65 20.44-45.65 45.65s20.44 45.65 45.65 45.65 45.65-20.44 45.65-45.65c0-25.22-20.44-45.65-45.65-45.65zm0 73.42c-15.34 0-27.77-12.43-27.77-27.77s12.43-27.77 27.77-27.77 27.77 12.43 27.77 27.77c0 15.33-12.43 27.77-27.77 27.77z"/>
		<path class="st0" d="m272.64 207.95h12.04c2.68 0 4.2-1.53 4.2-4.2v-22.17c0-1.72 0.96-2.1 2.49-1.72 3.25 0.96 6.5 1.72 11.47 1.72 20.64 0 34.41-14.91 34.41-31.92s-13.76-31.92-34.41-31.92-34.41 14.91-34.41 31.92v54.09c0 2.67 1.53 4.2 4.21 4.2zm30.2-72.06c8.98 0 13.95 7.07 13.95 13.76s-4.97 13.76-13.95 13.76c-8.99 0-13.95-7.07-13.95-13.76s4.97-13.76 13.95-13.76z"/>
		<path class="st0" d="m333.2 223.37h-12.07c-2.68 0-4.21 1.53-4.21 4.21v29.31c0 1.34-0.77 2.11-2.11 2.11h-23.76c-1.34 0-2.11-0.77-2.11-2.11v-29.31c0-2.68-1.53-4.21-4.21-4.21h-12.07c-2.68 0-4.22 1.53-4.22 4.21v80.09c0 2.68 1.53 4.21 4.22 4.21h12.07c2.68 0 4.21-1.53 4.21-4.21v-29.32c0-1.34 0.77-2.11 2.11-2.11h23.76c1.34 0 2.11 0.77 2.11 2.11v29.32c0 2.68 1.53 4.21 4.21 4.21h12.07c2.68 0 4.21-1.53 4.21-4.21v-80.09c0-2.67-1.53-4.21-4.21-4.21z"/>
		<path class="st0" d="m473.4 209.86c6.88 0 11.28-1.91 17.39-15.29l2.29-4.97c0.58-1.15 1.15-2.11 1.91-2.11s1.34 0.96 1.91 2.11l2.29 4.97c6.12 13.19 10.51 15.29 17.39 15.29 6.12 0 12.81-4.2 12.81-15.86v-70.15c0-2.68-1.53-4.2-4.2-4.2h-11.09c-2.68 0-4.2 1.53-4.2 4.2v46.64c0 2.1-1.53 2.29-2.68 0l-4.78-9.56c-1.91-3.82-3.63-7.26-7.45-7.26s-5.55 3.44-7.46 7.26l-4.78 9.56c-1.15 2.29-2.68 2.1-2.68 0v-46.64c0-2.68-1.53-4.2-4.2-4.2h-11.07c-2.68 0-4.21 1.53-4.21 4.2v70.15c0 11.65 6.88 15.86 12.81 15.86z"/>
		<path class="st0" d="m584.83 209.86c17.01 0 27.71-9.75 31.35-19.11 0.57-1.34 1.15-4.2-1.15-5.73l-8.98-5.93c-2.1-1.34-4.4-1.15-5.73 0.96-3.63 6.12-7.07 11.66-15.48 11.66-8.99 0-13.95-7.07-13.95-13.76v-3.44c0-1.34 0.76-2.1 2.1-2.1h18.73c2.68 0 4.2-1.53 4.2-4.2v-8.79c0-2.68-1.53-4.2-4.2-4.2h-18.73c-1.34 0-2.1-0.76-2.1-2.1v-3.44c0-6.69 4.97-13.76 13.95-13.76 8.41 0 11.85 5.54 15.48 11.66 1.34 2.1 3.63 2.29 5.73 0.96l8.98-5.93c2.29-1.53 1.72-4.4 1.15-5.73-3.63-9.37-14.34-19.12-31.35-19.12-20.65 0-34.41 14.91-34.41 31.92v28.29c0 16.98 13.76 31.89 34.41 31.89z"/>
		<path class="st0" d="m698.35 165.71c-1.34-1.15-1.15-2.29 0-3.44 4.21-3.82 7.65-7.84 7.65-16.25 0-17.97-13.76-28.29-34.41-28.29s-34.41 14.91-34.41 31.92v54.09c0 2.68 1.53 4.2 4.21 4.2h12.04c2.68 0 4.2-1.53 4.2-4.2v-29.24c0-1.34 0.76-2.1 2.1-2.1h11.85c8.98 0 13.95 7.07 13.95 13.76v17.59c0 2.68 1.53 4.2 4.2 4.2h12.04c2.68 0 4.2-1.53 4.2-4.2v-17.59c0.03-11.09-3.22-16.25-7.62-20.45zm-26.76-10.52h-11.85c-1.34 0-2.1-0.76-2.1-2.1v-3.44c0-6.69 4.97-13.76 13.95-13.76 7.26 0 13.95 3.06 13.95 10.13 0.01 8.03-9.93 9.17-13.95 9.17z"/>
		<path class="st0" d="m525.78 223.37h-12.07c-2.68 0-4.21 1.53-4.21 4.21v54.22c0 6.7-4.98 13.8-13.99 13.8s-13.99-7.09-13.99-13.8v-54.22c0-2.68-1.53-4.21-4.21-4.21h-12.07c-2.68 0-4.22 1.53-4.22 4.21v54.22c0 17.05 13.8 32 34.49 32s34.49-14.94 34.49-32v-54.22c-0.01-2.67-1.54-4.21-4.22-4.21z"/>
		<path class="st0" d="m584.21 256.52s-12.64 0-12.64-8.62c0-3.07 3.07-8.43 12.46-8.43 3.83 0 8.62 1.73 12.84 5.75 1.72 1.53 4.02 1.92 5.94 0.58l8.24-5.94c2.11-1.53 2.11-4.03 0.57-5.75-6.51-8.05-17.05-12.65-27.59-12.65-21.84 0-32.38 13.8-32.38 26.44 0 15.14 11.5 25.48 32.19 26.63 0 0 14.18-0.38 14.18 9.58 0 5.56-4.02 11.5-13.99 11.5-8.24 0-15.9-6.13-19.74-11.31-1.34-1.92-3.45-2.49-5.56-1.15l-7.67 5.17c-2.11 1.53-2.49 3.83-1.15 5.94 5.75 9.2 17.24 19.54 34.11 19.54 21.84 0 34.49-13.03 34.49-29.7 0-18.57-15.91-26.81-34.3-27.58z"/>
		<path class="st0" d="m674.06 239.66c8.43 0 11.88 5.56 15.52 11.69 1.34 2.11 3.64 2.3 5.75 0.96l9.01-5.94c2.3-1.53 1.72-4.41 1.15-5.75-3.64-9.39-14.37-19.16-31.42-19.16-20.69 0-34.49 14.95-34.49 32v28.36c0 17.05 13.8 32 34.49 32 17.05 0 27.78-9.77 31.42-19.16 0.57-1.34 1.15-4.21-1.15-5.75l-9.01-5.94c-2.11-1.34-4.41-1.15-5.75 0.96-3.64 6.13-7.09 11.69-15.52 11.69-9.01 0-13.99-7.09-13.99-13.8v-3.45c0-1.34 0.77-2.11 2.11-2.11h18.78c2.68 0 4.21-1.53 4.21-4.21v-8.81c0-2.68-1.53-4.21-4.21-4.21h-18.78c-1.34 0-2.11-0.77-2.11-2.11v-3.45c0.01-6.72 4.99-13.81 13.99-13.81z"/>
</svg>
